# xmcd CD database file
#
# Track frame offsets:
#	150
#	2102
#	14784
#	29790
#	45940
#	59439
#	73753
#	86210
#	102233
#	119326
#	131713
#	149597
#	171311
#	187398
#	203413
#	218874
#	252153
#	280568
#	300542
#	320983
#
# Disc length: 4532 seconds
#
# Revision: 1
# Processed by: cddbd v1.5.2PL0 Copyright (c) Steve Scherf et al.
# Submitted via: CDex 1.51
#
DISCID=3a11b214
DTITLE=Bosshoss - Rodeo Radio
DYEAR=2006
DGENRE=Country
TTITLE0=Power, Hoss (Intro)
TTITLE1=Rodeo Radio
TTITLE2=Ring Ring Ring
TTITLE3=My Favourite Game
TTITLE4=I Say A Little Prayer
TTITLE5=I'm On A High
TTITLE6=Hell Yeah
TTITLE7=Hot Stuff
TTITLE8=Rodeo Queen
TTITLE9=It's Not Unusual
TTITLE10=Shake A Leg
TTITLE11=Mary Marry Me
TTITLE12=Jesus Build My Hotrod
TTITLE13=Upside Down
TTITLE14=Ca Plane Pour Moi
TTITLE15=You'll Never Walk Alone
TTITLE16=I Say A Little Prayer (Directors Video Cut)
TTITLE17=Yeehaw (Live)
TTITLE18=Remedy (Live)
TTITLE19=Sabotage (Live)
EXTD=YEAR: 2006
EXTT0=
EXTT1=
EXTT2=
EXTT3=
EXTT4=
EXTT5=
EXTT6=
EXTT7=
EXTT8=
EXTT9=
EXTT10=
EXTT11=
EXTT12=
EXTT13=
EXTT14=
EXTT15=
EXTT16=
EXTT17=
EXTT18=
EXTT19=
PLAYORDER=
